<svg xmlns="http://www.w3.org/2000/svg" xmlns:xlink="http://www.w3.org/1999/xlink" width="600" height="250" viewBox="0 0 600 250"><defs><clipPath id="clip-_600x250_Thinking-traveller-logo"><rect width="600" height="250"></rect></clipPath></defs><g id="_600x250_Thinking-traveller-logo" data-name="600x250 Thinking-traveller-logo" clip-path="url(#clip-_600x250_Thinking-traveller-logo)"><g id="Symbols" transform="translate(204.228 45.606)"><g id="Masthead" transform="translate(0)"><g id="TTT-logo-stacked"><g id="Group_3999" data-name="Group 3999" transform="translate(0)"><g id="Group_3998" data-name="Group 3998" transform="translate(0)"><path id="Fill-1" d="M0,87.3v2.646H5.153v13.6H8.029v-13.6h5.153V87.3Z" transform="translate(0.001 30.516)" fill="#002840" fill-rule="evenodd"></path><path id="Fill-2" d="M40,87.211l-7.145,16.366h2.922l1.669-3.923h7.684l1.642,3.923h3.019L42.647,87.211Zm1.279,3.414,2.8,6.5h-5.59Z" transform="translate(11.486 30.486)" fill="#002840" fill-rule="evenodd"></path><path id="Fill-3" d="M61.759,87.3,56.887,99.784,51.989,87.3H48.837l6.748,16.358h2.507L64.845,87.3Z" transform="translate(17.072 30.516)" fill="#002840" fill-rule="evenodd"></path><path id="Fill-4" d="M66.844,87.3v16.247H79.009v-2.559H69.7V96.63h8.143V94.077H69.7V89.85h9.188V87.3Z" transform="translate(23.367 30.516)" fill="#002840" fill-rule="evenodd"></path><path id="Fill-5" d="M83.219,87.3v16.247H94.61v-2.6H86.068V87.3Z" transform="translate(29.091 30.516)" fill="#002840" fill-rule="evenodd"></path><path id="Fill-6" d="M97.694,87.3v16.247h11.39v-2.6h-8.539V87.3Z" transform="translate(34.151 30.516)" fill="#002840" fill-rule="evenodd"></path><path id="Fill-7" d="M111.851,87.3v16.247h12.157v-2.559h-9.3V96.63h8.143V94.077h-8.143V89.85h9.186V87.3Z" transform="translate(39.1 30.516)" fill="#002840" fill-rule="evenodd"></path><path id="Fill-8" d="M130.414,89.9h4.154c2.111,0,3.363.927,3.363,2.714,0,1.669-1.3,2.74-3.335,2.74h-4.182Zm15.471,10.926a7.865,7.865,0,0,1-1.869.246,8.306,8.306,0,0,1-5.038-1.957l-2.151-1.7.135-.022a4.863,4.863,0,0,0,3.873-4.942c0-3.18-2.3-5.153-6.035-5.153h-7.238v16.247h2.852V97.88h2.6l4.289,3.382a10.977,10.977,0,0,0,6.732,2.532,10.175,10.175,0,0,0,2.482-.324l.17-.038-.552-2.665Z" transform="translate(44.592 30.516)" fill="#002840" fill-rule="evenodd"></path><path id="Fill-11" d="M19.366,89.9h4.155c2.111,0,3.366.927,3.366,2.714,0,1.669-1.3,2.74-3.343,2.74H19.366Zm6.408,7.514.138-.022a4.863,4.863,0,0,0,3.875-4.942c0-3.18-2.3-5.153-6.031-5.153H16.514v16.247h2.853V97.88h2.6l4.273,3.377a11.07,11.07,0,0,0,6.486,2.532v-2.726a8.458,8.458,0,0,1-4.81-1.953Z" transform="translate(5.773 30.516)" fill="#002840" fill-rule="evenodd"></path><path id="Fill-13" d="M36.026,82.471v-13.6h5.15V66.226H27.994v2.649h5.154v13.6Z" transform="translate(9.786 23.15)" fill="#002840" fill-rule="evenodd"></path><path id="Fill-15" d="M53.866,82.47h2.852V66.226H53.866v6.751H46.117V66.226H43.261V82.47h2.856V75.626h7.749Z" transform="translate(15.123 23.15)" fill="#002840" fill-rule="evenodd"></path><path id="Fill-17" d="M59.949,82.469H62.8V66.226H59.949Z" transform="translate(20.957 23.15)" fill="#002840" fill-rule="evenodd"></path><path id="Fill-19" d="M80.064,77.456l-8.7-11.23H68.718V82.47h2.808V70.909l8.958,11.56h2.383V66.226h-2.8Z" transform="translate(24.022 23.15)" fill="#002840" fill-rule="evenodd"></path><path id="Fill-20" d="M100.145,82.47l-7.057-9.258,6.749-6.985h-3.5l-7.73,8.168V66.226H85.753V82.47h2.854V77.76l2.529-2.6,5.548,7.311Z" transform="translate(29.977 23.15)" fill="#002840" fill-rule="evenodd"></path><path id="Fill-21" d="M122.24,77.456l-8.7-11.23h-2.646V82.47H113.7V70.909l8.957,11.56h2.391V66.226H122.24Z" transform="translate(38.764 23.15)" fill="#002840" fill-rule="evenodd"></path><path id="Fill-22" d="M134.864,73.466V75.95h4.15v3.043a6.611,6.611,0,0,1-3.918,1.225c-3.319,0-5.526-2.454-5.526-5.819a5.489,5.489,0,0,1,5.266-5.756,6.368,6.368,0,0,1,4.553,1.742l1.808-2.158a8.76,8.76,0,0,0-6.246-2.209,8.279,8.279,0,0,0-8.375,8.424A8.063,8.063,0,0,0,135,82.817a10.365,10.365,0,0,0,6.775-2.525V73.466Z" transform="translate(44.247 23.078)" fill="#002840" fill-rule="evenodd"></path><path id="Fill-23" d="M2.472,74.349H4.259V67.871H6.733V66.226H0v1.645H2.472Z" transform="translate(0 23.15)" fill="#002840" fill-rule="evenodd"></path><path id="Fill-24" d="M10.265,71.09h3.3v3.258h1.792V66.227H13.56v3.215h-3.3V66.227H8.474v8.122h1.791Z" transform="translate(2.963 23.151)" fill="#002840" fill-rule="evenodd"></path><path id="Fill-25" d="M19.06,71.055H22.9v-1.59H19.06V67.816h4.356v-1.59H17.284v8.122h6.19v-1.59H19.06Z" transform="translate(6.042 23.15)" fill="#002840" fill-rule="evenodd"></path><path id="Fill-26" d="M19.774,76.069c-1.853,0-3.089,1.175-4.943,1.175s-3.086-1.175-4.945-1.175S6.8,77.244,4.945,77.244,1.854,76.069,0,76.069v1.788c1.854,0,3.095,1.173,4.945,1.173s3.086-1.173,4.941-1.173,3.093,1.173,4.945,1.173,3.091-1.173,4.943-1.173,3.089,1.173,4.939,1.173,3.093-1.173,4.946-1.173V76.069c-1.853,0-3.088,1.175-4.946,1.175s-3.084-1.175-4.939-1.175" transform="translate(0.001 26.591)" fill="#002840" fill-rule="evenodd"></path><path id="Fill-27" d="M101.907,82.469h2.852V66.226h-2.852Z" transform="translate(35.624 23.15)" fill="#002840" fill-rule="evenodd"></path><path id="Fill-28" d="M85.862,15.516V13.728H58.949v1.788h15.3V19.23h-15.3v1.79h9.8V43.953h1.79V21.02h3.713V43.953h1.79V21.02h9.821V19.23H76.041V15.516Z" transform="translate(20.607 4.799)" fill="#002840" fill-rule="evenodd"></path><path id="Fill-29" d="M76.806,0C67.456,0,59.5,7.613,54.468,14c-5.235,6.891-8.038,13.28-8.108,18.489.07,5.231,2.873,11.625,8.1,18.5,5.035,6.4,12.995,14,22.345,14.008S94.113,57.389,99.15,50.992c5.228-6.877,8.033-13.272,8.1-18.5-.072-5.209-2.876-11.6-8.112-18.489C94.113,7.613,86.158,0,76.806,0m0,1.788c8.632,0,16.148,7.243,20.913,13.295,5,6.583,7.682,12.612,7.745,17.382-.063,4.838-2.74,10.871-7.718,17.42-4.784,6.076-12.3,13.32-20.94,13.326s-16.157-7.25-20.921-13.3c-5-6.571-7.672-12.6-7.737-17.395.065-4.822,2.742-10.849,7.726-17.408,4.783-6.074,12.3-13.318,20.932-13.318" transform="translate(16.206)" fill="#002840" fill-rule="evenodd"></path></g></g></g></g></g></g></svg>