<?xml version="1.0" encoding="UTF-8"?> <svg xmlns="http://www.w3.org/2000/svg" xmlns:xlink="http://www.w3.org/1999/xlink" width="153px" height="56px" viewBox="0 0 153 56"><!-- Generator: Sketch 61.2 (89653) - https://sketch.com --><title>knight-frank-logo@1x</title><desc>Created with Sketch.</desc><g id="Assets" stroke="none" stroke-width="1" fill="none" fill-rule="evenodd"><g id="Knight-Frank" transform="translate(-416.000000, -277.000000)" fill="#FFFFFF" fill-rule="nonzero"><g id="knight-frank-logo" transform="translate(416.000000, 277.000000)"><path d="M152.342569,24.0513193 L151.762305,21.3872315 C150.964322,21.6032386 150.600818,21.7462833 150.168258,21.7462833 C148.643266,21.7462833 148.210706,21.1693043 148.210706,19.0092332 L148.210706,10.5100731 L151.037215,10.5100731 L152.196784,7.41397113 L148.210706,7.41397113 L148.210706,2.74245721 L143.788231,3.45096056 L143.788231,7.41397113 L142.046479,7.41397113 L142.046479,10.5100731 L143.788231,10.5100731 L143.788231,19.7302169 C143.788231,21.3142691 143.788231,21.6032386 144.075006,22.3232623 C144.582377,23.8353122 146.396062,24.8443054 148.644225,24.8443054 C149.804753,24.8433454 151.037215,24.5553359 152.342569,24.0513193 Z M139.734055,24.4103711 L139.734055,12.5270996 C139.734055,10.870085 139.662122,10.3651084 139.298617,9.42907752 C138.791246,7.9170277 137.051413,6.98195689 134.875183,6.98195689 C132.916672,6.98195689 131.250691,7.70102058 130.01727,9.07002569 C130.01727,8.85305854 130.089204,7.84502533 130.089204,7.34004869 L130.089204,0.929917495 L125.520943,1.6614616 L125.520943,24.4103711 L130.089204,24.4103711 L130.089204,15.0471826 C130.089204,13.4746508 130.292536,12.5607007 130.815253,11.9491605 C131.483756,11.1667348 132.623183,10.7241602 133.642722,10.7241602 C134.949035,10.7241602 135.383514,11.446104 135.383514,13.0301562 L135.383514,24.4103711 L139.734055,24.4103711 L139.734055,24.4103711 Z M118.012039,17.6402281 C118.012039,18.4322541 117.939146,19.2252403 117.649494,19.8742217 C117.287908,20.6662477 116.561858,21.1693043 115.619049,21.1693043 C112.935448,21.1693043 112.644836,19.2972426 112.644836,15.7681664 C112.644836,12.599102 113.2251,10.7251202 115.546156,10.7251202 C116.706685,10.7251202 117.57756,11.3020992 118.012039,11.8051558 L118.012039,17.6402281 Z M122.231182,7.05299923 L118.910729,7.58581679 C118.910729,7.58581679 118.664236,8.5362481 118.591344,8.89625996 C117.787606,7.99191017 116.415114,7.1250016 114.748173,7.1250016 C109.453864,7.1250016 107.714031,11.8790782 107.714031,16.3441854 C107.714031,20.522243 109.526756,24.6273383 114.530455,24.6273383 C115.908702,24.6273383 117.502749,23.8353122 118.01108,22.9703237 L118.01108,24.4103711 C118.01108,27.0043766 117.792402,28.2284169 114.457562,28.2284169 C112.862555,28.2284169 110.975978,27.6523979 109.309037,26.7874094 L108.220443,29.8854315 C110.396673,30.963547 112.426158,31.6134884 114.674322,31.6134884 C116.414155,31.6134884 118.880996,31.3254789 120.476003,29.9564738 C122.143902,28.5884288 122.215836,26.1393881 122.215836,23.7623498 L122.231182,7.05299923 L122.231182,7.05299923 Z M105.552187,2.73093683 C105.552187,1.51937692 104.807915,0.493103103 103.728911,0.13213121 L101.994833,0.13213121 C100.878424,0.493103103 100.041118,1.51937692 100.041118,2.73093683 C100.041118,4.24394668 101.273579,5.53902935 102.796653,5.53902935 C104.318767,5.53902935 105.552187,4.24394668 105.552187,2.73093683 L105.552187,2.73093683 Z M105.045775,24.4103711 L105.045775,7.05299923 L100.548489,7.77302296 L100.548489,24.4103711 L105.045775,24.4103711 Z M97.1599389,24.4103711 L97.1599389,12.023083 C97.1599389,10.9420874 97.0880053,10.2220636 96.8712455,9.57404229 C96.3619559,8.13303482 94.6221229,7.1250016 92.7365046,7.1250016 C91.7217619,7.1250016 90.5602747,7.34004869 89.6903582,7.84502533 C88.9318465,8.2267513 88.263981,8.76692384 87.7318472,9.42907752 L87.4489085,7.16820303 L83.6719171,7.77302296 L83.6719171,24.4103711 L88.1682441,24.4103711 L88.1682441,14.4001213 C88.1682441,13.1741609 88.5298301,12.3120525 89.1100941,11.7350735 C89.7632508,11.1580945 90.4893002,10.871045 91.2134314,10.871045 C92.4468521,10.871045 92.8084382,11.6630711 92.8084382,13.6071352 L92.8084382,24.4113311 L97.1599389,24.4113311 L97.1599389,24.4103711 L97.1599389,24.4103711 Z M82.418355,24.4103711 L74.4011201,12.023083 L81.620372,1.36289176 L76.1131388,1.36289176 L69.5134746,11.8790782 L69.5134746,1.36289176 L64.8003878,1.36289176 L64.8003878,24.4103711 L69.5134746,24.4103711 L69.5134746,12.3821348 L76.5217214,24.4103711 L82.418355,24.4103711 L82.418355,24.4103711 Z M119.426732,55.0392202 L119.426732,42.6509721 C119.426732,41.5709365 119.353839,40.8489927 119.136121,40.2009714 C118.628749,38.7609239 116.887957,37.7519307 115.002339,37.7519307 C113.986637,37.7519307 112.827068,37.9679378 111.956192,38.4729144 C111.198249,38.8546773 110.530766,39.3944771 109.99864,40.0560066 L109.714743,37.7951321 L105.93871,38.4009121 L105.93871,55.0392202 L110.433119,55.0392202 L110.433119,45.0270504 C110.433119,43.80301 110.795664,42.9389816 111.376887,42.3620026 C112.029085,41.7859836 112.754175,41.4979741 113.479266,41.4979741 C114.712686,41.4979741 115.074272,42.2919203 115.074272,44.2359843 L115.074272,55.0401803 L119.426732,55.0401803 L119.426732,55.0392202 L119.426732,55.0392202 Z M131.66311,45.1700951 L137.17418,38.0399402 L131.735044,38.0399402 L127.311609,45.3870622 L133.155492,55.0392202 L138.4076,55.0392202 L131.66311,45.1700951 L131.66311,45.1700951 Z" id="Shape"></path><path d="M122.815282,32.4400757 L122.815282,55.0392202 L127.311609,55.0392202 L127.311609,31.7190919 L122.815282,32.4400757 Z M87.7865167,37.9679378 C87.0614264,37.6808883 86.7708148,37.6079259 86.1186172,37.6079259 C84.4507178,37.6079259 82.7818592,39.1199757 82.0577281,40.2729737 L81.6222903,37.9679378 L77.9949207,38.5525971 L77.9949207,55.0392202 L82.4912476,55.0392202 L82.4912476,44.5019131 C82.4912476,43.6388446 82.6341556,42.9140207 83.1434452,42.3620026 C83.5740875,41.8963872 84.301096,41.5680564 85.1182612,41.5680564 C85.6246735,41.5680564 86.2126104,41.7130212 86.64613,41.9299883 L87.7865167,37.9679378 L87.7865167,37.9679378 Z M77.3456004,31.9898208 L64.8003878,31.9898208 L64.8003878,55.0392202 L69.3686483,55.0392202 L69.3686483,44.8110433 L75.3151558,44.8110433 L75.3151558,41.0794003 L69.3686483,41.0794003 L69.3686483,35.6763423 L76.7653364,35.6763423 L77.3456004,31.9898208 L77.3456004,31.9898208 Z M103.890043,53.1661985 C102.366969,52.0132005 102.204879,51.1702928 102.204879,49.4211151 L102.231734,43.6590053 C102.231734,41.8983073 102.16076,41.3539694 101.942082,40.6339456 C101.289884,38.7618839 99.3304141,37.6818484 96.4310122,37.6818484 C94.8360054,37.6818484 93.3819884,37.9621776 91.7169663,38.6889215 C90.7867765,39.1032579 89.8857031,39.580206 89.0199374,40.1164886 L90.6715319,43.0532253 C92.7086903,41.766783 94.3276749,41.2675665 95.7778555,41.2675665 C97.4457549,41.2675665 97.8495419,42.0039108 97.8495419,43.8769325 L97.8495419,44.5249538 L96.7935573,44.5249538 C91.3544212,44.5249538 88.5988863,46.3989356 88.5988863,50.359066 C88.5988863,53.4426876 90.2830907,55.3329899 93.4894092,55.6450002 L95.3088487,55.6450002 C96.3235914,55.5307564 97.1935079,55.2081858 97.8821518,54.7521708 C98.2437378,54.5371237 98.606283,54.1646314 98.9697872,53.8046196 C99.329455,54.516963 100.031527,55.1899452 100.836223,55.6450002 L101.602555,55.6450002 L103.890043,53.1661985 L103.890043,53.1661985 Z M97.7766493,47.44441 L97.7814448,51.3949402 C97.127329,52.116884 96.2132933,52.4471348 95.3424176,52.4471348 C94.1818896,52.4471348 93.3848657,51.5091839 93.3848657,50.2121812 C93.3848657,48.1970748 94.3986494,47.44441 97.5176885,47.44441 L97.7766493,47.44441 L97.7766493,47.44441 Z" id="Shape"></path><path d="M0.575069688,19.2108398 L9.62718869,28.200576 L27.5971507,10.3516679 L18.5479091,1.36289176 L0.575069688,1.36289176 L0.575069688,19.2108398 L0.575069688,19.2108398 Z M18.5479091,55.0382602 L27.5971507,46.0494841 L9.62718869,28.200576 L0.575069688,37.1893521 L0.575069688,55.0382602 L18.5479091,55.0382602 Z M27.5971507,46.0494841 L36.6473515,55.0382602 L54.4935878,55.0382602 L54.4935878,37.0655081 L45.569031,28.200576 L27.5971507,46.0494841 Z M45.569031,28.200576 L54.4935878,19.3356439 L54.4935878,1.36289176 L36.6473515,1.36289176 L27.5971507,10.3516679 L45.569031,28.200576 Z" id="Shape"></path></g></g></g></svg> 