<?xml version="1.0" encoding="UTF-8"?> <svg xmlns="http://www.w3.org/2000/svg" width="26" height="26" viewBox="0 0 26 26" fill="none"><g clip-path="url(#clip0_640_3242)"><rect width="26" height="26" fill="white"></rect><path d="M13 -5.68248e-07C11.2928 -4.93625e-07 9.60235 0.336255 8.02511 0.989566C6.44788 1.64288 5.01477 2.60045 3.80761 3.80761C2.60045 5.01477 1.64288 6.44788 0.989565 8.02512C0.336254 9.60235 -7.17495e-07 11.2928 -5.68248e-07 13C-4.19001e-07 14.7072 0.336255 16.3977 0.989566 17.9749C1.64288 19.5521 2.60045 20.9852 3.80761 22.1924C5.01477 23.3996 6.44788 24.3571 8.02512 25.0104C9.60235 25.6637 11.2928 26 13 26L13 13L13 -5.68248e-07Z" fill="#F7A823"></path></g><defs><clipPath id="clip0_640_3242"><rect width="26" height="26" fill="white"></rect></clipPath></defs></svg> 