<?xml version="1.0" encoding="UTF-8" standalone="no"?> <svg xmlns:dc="http://purl.org/dc/elements/1.1/" xmlns:cc="http://creativecommons.org/ns#" xmlns:rdf="http://www.w3.org/1999/02/22-rdf-syntax-ns#" xmlns:svg="http://www.w3.org/2000/svg" xmlns="http://www.w3.org/2000/svg" xmlns:sodipodi="http://sodipodi.sourceforge.net/DTD/sodipodi-0.dtd" xmlns:inkscape="http://www.inkscape.org/namespaces/inkscape" width="440" height="120" viewBox="0 0 440 120" fill="none" version="1.1" id="svg19" sodipodi:docname="logo-orange.svg" inkscape:export-filename="/home/npolet/dev/stashbee_branch/public/img/logo-orange.svg.png" inkscape:export-xdpi="180" inkscape:export-ydpi="180" inkscape:version="0.92.5 (2060ec1f9f, 2020-04-08)"><metadata id="metadata23"></metadata><g clip-path="url(#clip0_431:9007)" id="g12"><path d="M355.998 66.2216C349.173 73.0469 338.117 79.1869 330.61 79.1869C324.707 79.1869 321.043 74.7808 319.248 69.4976C332.36 60.6324 343.029 48.4545 343.029 38.647C343.029 32.7763 339.479 29.9124 334.429 29.9124C319.823 29.9124 311.362 47.3816 311.362 61.9869C311.361 63.5326 311.476 65.0763 311.705 66.6051C303.729 71.6721 295.333 75.0908 288.291 75.0908C284.273 75.0908 281.082 73.6833 279.475 70.8643C292.591 66.5398 300.033 55.4349 300.033 46.019C300.033 41.5313 297.846 37.6923 292.661 37.6923C281.878 37.6923 271.365 54.619 271.365 65.9483C271.365 66.1482 271.365 66.3562 271.385 66.5602C267.726 67.1828 263.999 67.2981 260.309 66.9029C259.962 66.8814 259.615 66.9338 259.291 67.0566C258.966 67.1794 258.672 67.3698 258.426 67.6152C258.181 67.8605 257.99 68.1552 257.868 68.4798C257.745 68.8043 257.693 69.1513 257.714 69.4976C257.714 70.8602 258.53 71.8148 260.035 72.0882C264.35 72.8296 268.751 72.9135 273.09 72.337C275.595 77.147 280.687 81.5082 287.475 81.5082C295.149 81.5082 304.569 78.1832 313.459 73.104C316.478 80.578 322.475 85.7511 329.651 85.7511C340.299 85.7511 352.175 79.1991 359.135 70.8724C362.411 66.907 359.829 62.4193 355.998 66.2216ZM292.661 44.3789C296.528 44.3789 292.575 58.5069 278.414 64.4959C279.402 55.235 288.532 44.3789 292.661 44.3789ZM317.914 61.3056C317.914 49.0216 327.742 36.191 333.747 36.191C339.206 36.191 335.249 47.6549 322.145 58.8496C320.782 60.0205 319.37 61.1587 317.93 62.2561C317.922 61.9379 317.914 61.6034 317.914 61.3056Z" fill="#FFFFFF" id="path2"></path><path d="M212.397 45.1989C206.665 50.6575 198.199 60.8975 191.513 69.2242L215.265 13.3936C217.174 8.90594 212.262 4.52027 207.619 8.61628C186.878 29.1698 168.711 50.0129 157.068 66.5234C152.515 63.6676 148.578 60.6446 148.929 55.8468C149.61 46.2922 160.666 45.8802 163.396 46.4268C168.446 47.3815 169.813 40.8295 165.309 39.3282C155.342 36.4724 142.785 43.1509 141.965 54.7535C141.398 63.1658 147.489 68.1879 153.364 71.9657C142.663 88.3293 139.758 99.2547 149.337 99.2547C158.21 99.2547 169.266 89.5614 169.813 80.9614C170.143 75.9516 166.672 72.7164 162.47 69.9055C171.755 57.3686 185.928 40.4297 203.936 20.9002C200.794 28.2722 181.82 74.1361 180.322 80.2801C179.776 82.6015 180.049 85.4654 183.052 85.4654C185.091 85.4654 186.466 83.6907 188.241 81.6427C195.474 73.0468 205.302 60.3508 211.72 54.0722C210.218 62.1255 204.074 79.1868 199.705 89.8347C199.024 91.744 200.252 93.6574 202.3 93.6574C203.523 93.6574 204.747 92.8415 205.441 91.2096C211.72 78.1056 218.133 58.7189 220.593 48.891C221.527 44.2442 216.901 40.4215 212.397 45.1989ZM163.665 80.8268C163.257 86.1304 154.657 92.9761 151.516 92.9761C148.081 92.9761 150.814 86.4486 158.635 75.2295C161.666 77.1469 163.836 78.8604 163.665 80.8268Z" fill="#FFFFFF" id="path4"></path><path d="M420.155 26.7709C418.646 26.7709 416.72 26.8444 414.525 27.0157C415.494 23.1449 416.009 19.1745 416.059 15.1846C416.059 5.7646 409.78 0.167268 403.228 0.167268C397.362 0.150949 385.347 6.43367 385.347 26.11C385.337 28.6411 385.59 31.1664 386.102 33.6452C379.285 36.8559 374.271 41.4252 374.271 47.814C374.271 55.7286 380.553 60.7792 387.375 60.7792C392.409 60.7792 397.235 57.8214 401.441 53.2032C405.958 55.3165 411.196 56.4139 416.863 56.4139C431.468 56.4139 439.656 49.1766 439.656 40.9886C439.672 33.3229 432.712 26.7709 420.155 26.7709ZM391.214 26.11C391.214 10.546 399.406 6.31536 403.228 6.31536C406.9 6.31536 410.188 8.91004 410.188 15.1887C410.148 19.4033 409.585 23.5967 408.512 27.6725C402.766 28.4012 397.102 29.6674 391.593 31.4544C391.335 29.6847 391.209 27.8984 391.214 26.11ZM392.874 36.6397C393.865 36.3052 394.914 35.991 395.942 35.6973C397.166 38.7693 399.381 41.3721 401.927 43.5017C401.356 44.4401 400.764 45.3417 400.152 46.1943C396.767 43.8692 394.217 40.5206 392.874 36.6397ZM404.538 38.6469C403.13 37.4837 401.963 36.0562 401.103 34.4448C402.963 34.0369 404.848 33.7227 406.712 33.4453C406.068 35.2322 405.338 36.9742 404.546 38.6469H404.538ZM379.876 47.7936C379.882 46.6142 380.195 45.4567 380.786 44.436C382.418 47.9037 385.298 52.1874 388.803 55.0432C388.334 55.1244 387.859 55.1653 387.383 55.1656C382.752 55.1615 379.884 52.7055 379.884 47.7936H379.876ZM394.453 52.3424C390.434 50.2251 386.326 44.1259 385.07 40.2176C385.898 39.6863 386.756 39.2027 387.64 38.7693C389.496 43.406 392.62 47.4258 396.656 50.3679C395.969 51.0738 395.236 51.7335 394.461 52.3424H394.453ZM416.891 50.5229C412.367 50.5229 408.41 49.8946 405.04 48.6666C408.371 43.7355 411.004 38.3675 412.865 32.715C415.516 32.4825 417.993 32.3683 420.139 32.3683C429.828 32.3683 433.516 36.4479 433.516 40.9682C433.532 45.8802 428.775 50.5229 416.879 50.5229H416.891Z" fill="#FFFFFF" id="path6"></path><path d="M251.717 40.8296C249.126 40.8296 243.529 44.0934 235.337 57.075C242.293 37.827 242.293 37.827 255.389 4.52039C256.759 0.289747 250.493 -2.44772 247.886 3.15777C230.278 47.7937 220.303 78.7789 220.303 88.4682C220.303 92.5479 222.625 95.7055 226.855 95.7055C242.007 95.7055 257.975 62.5336 257.975 49.8417C257.987 44.6523 255.531 40.8296 251.717 40.8296ZM227.822 89.5615C220.862 89.5615 243.655 49.295 250.207 49.295C257.171 49.295 238.058 89.5615 227.822 89.5615Z" fill="#FFFFFF" id="path8"></path><path d="M137.457 15.5761C121.697 18.485 108.899 21.1449 97.6188 23.76C98.3668 22.2151 99.0467 20.6703 99.6587 19.1255C101.291 15.4537 98.4348 14.3481 97.064 14.3481C95.4321 14.3481 93.9267 15.5721 92.8333 17.4895C91.9807 18.999 91.0424 20.6798 90.0347 22.5034C89.3248 23.7192 88.6027 24.9159 87.8684 26.0936C76.8287 28.8229 66.9477 31.5644 56.5241 34.5508C53.9294 35.3667 52.8524 37.1455 52.8524 38.7814C52.8524 40.5561 54.215 42.1961 56.263 41.6372C65.0139 39.0262 73.3977 36.6477 82.373 34.2937C67.7963 54.6106 49.9517 69.3546 35.5219 81.1286C25.0942 71.7453 7.64534 64.2101 7.64534 57.8744C7.64534 48.589 26.8892 34.5304 33.7146 34.5304C35.6279 34.5304 36.0359 36.9782 36.0359 42.7224C36.0359 45.0397 37.2598 46.5451 39.2997 46.5451C40.6664 46.5451 42.7144 45.7291 42.7144 42.9957C42.7266 31.0055 39.981 26.7708 35.0853 26.7708C22.2547 26.7708 0 45.6067 0 56.8014C0 68.4652 20.325 76.5267 30.5038 85.2328C18.0281 95.4891 9.14666 103.489 9.14666 111.265C9.14666 116.455 12.9693 120 17.3346 120C26.8892 120 43.1346 107.443 43.1346 94.204C43.1346 91.4951 42.0942 88.9004 40.3726 86.4526C50.4658 77.8159 62.3009 67.633 72.9489 56.6708C64.4673 76.2534 59.6369 94.4896 71.1172 94.4896C79.2969 94.4896 89.949 83.401 100.385 71.7739C100.181 72.7346 100.07 73.7128 100.054 74.6949C100.054 79.1826 102.376 83.1603 106.88 83.1603C113.297 83.1603 118.756 77.9709 122.17 74.2869C121.762 78.3666 121.762 88.7535 123.802 92.0295C125.169 94.3509 129.946 93.6614 129.538 90.1202C128.853 83.8416 125.577 75.2416 135.544 51.8976C136.36 49.7884 136.735 48.1035 136.441 46.8551C135.952 43.2609 132.211 42.0696 129.538 42.0696C123.529 42.0696 116.977 43.983 105.374 57.087C91.1811 73.059 77.3917 87.2522 73.4344 87.2522C66.7927 87.2522 78.2892 59.596 90.8792 35.2321C91.6951 34.0245 92.4893 32.8128 93.2617 31.5971C105.55 28.623 119.49 25.5999 137.18 22.1404C140.035 21.3244 141.002 19.6925 141.002 18.3218C140.998 17.8902 140.897 17.4652 140.705 17.0786C140.513 16.6919 140.236 16.3538 139.895 16.0896C139.554 15.8253 139.157 15.6418 138.735 15.5529C138.313 15.464 137.876 15.4719 137.457 15.5761ZM36.1746 94.3386C36.1746 102.804 23.6132 113.04 17.8813 113.04C16.6574 113.04 16.2494 112.493 16.2494 111.131C16.2494 107.524 24.1966 100.336 35.2812 90.8138C35.8514 91.9024 36.1574 93.1099 36.1746 94.3386ZM108.385 75.9107C107.43 75.9107 106.884 75.0947 106.884 73.8708C106.884 64.4549 119.853 47.8016 126.952 47.8016C128.041 47.8016 128.726 48.4829 128.726 49.7109C128.722 56.8014 116.026 75.9107 108.381 75.9107H108.385Z" fill="#FFFFFF" id="path10"></path></g><defs id="defs17"><clipPath id="clip0_431:9007"><rect width="439.672" height="120" fill="white" id="rect14"></rect></clipPath></defs></svg> 